<svg width="46" height="41" viewBox="0 0 46 41" fill="none" xmlns="http://www.w3.org/2000/svg">
<path d="M23 15V23M23 31H23.02M19.58 4.71998L2.64004 33C2.29078 33.6048 2.10598 34.2906 2.10402 34.989C2.10206 35.6875 2.28302 36.3742 2.62889 36.981C2.97477 37.5878 3.47349 38.0935 4.07546 38.4477C4.67742 38.8019 5.36164 38.9923 6.06004 39H39.94C40.6384 38.9923 41.3227 38.8019 41.9246 38.4477C42.5266 38.0935 43.0253 37.5878 43.3712 36.981C43.7171 36.3742 43.898 35.6875 43.8961 34.989C43.8941 34.2906 43.7093 33.6048 43.36 33L26.42 4.71998C26.0635 4.1322 25.5615 3.64622 24.9624 3.30895C24.3634 2.97168 23.6875 2.79449 23 2.79449C22.3126 2.79449 21.6367 2.97168 21.0377 3.30895C20.4386 3.64622 19.9366 4.1322 19.58 4.71998Z" stroke="#B3B3B3" stroke-width="4" stroke-linecap="round" stroke-linejoin="round"/>
</svg>
